<svg width="414" height="259" viewBox="0 0 414 259" fill="none" xmlns="http://www.w3.org/2000/svg">
<path d="M155.781 -218.434L375.5 -64.4999L405.271 -51.5068C430.281 -40.5911 443.863 -13.31 437.496 13.2261C435.524 21.4462 431.726 29.1166 426.384 35.6682L380.666 91.7412C358.701 118.68 323.187 130.563 289.433 122.268L269.963 117.483C244.353 111.188 217.27 116.838 196.312 132.846C155.892 163.719 97.7285 153.533 70.207 110.76L65.439 103.35L31.8775 39.6511C27.0913 30.567 19.7038 23.1174 10.6601 18.2554L-28.6614 -2.88446C-39.7373 -8.83907 -41.8813 -23.8172 -32.9205 -32.6398L155.781 -218.434Z" fill="#EAFFF3"/>
<path d="M155.781 -218.434L375.5 -64.4999L405.271 -51.5068C430.281 -40.5911 443.863 -13.31 437.496 13.2261C435.524 21.4462 431.726 29.1166 426.384 35.6682L380.666 91.7412C358.701 118.68 323.187 130.563 289.433 122.268L269.963 117.483C244.353 111.188 217.27 116.838 196.312 132.846C155.892 163.719 97.7285 153.533 70.207 110.76L65.439 103.35L31.8775 39.6511C27.0913 30.567 19.7038 23.1174 10.6601 18.2554L-28.6614 -2.88446C-39.7373 -8.83907 -41.8813 -23.8172 -32.9205 -32.6398L155.781 -218.434Z" fill="url(#paint0_linear)" fill-opacity="0.15"/>
<defs>
<linearGradient id="paint0_linear" x1="128.315" y1="155.239" x2="187.111" y2="-131.398" gradientUnits="userSpaceOnUse">
<stop stop-color="#398495"/>
<stop offset="1" stop-color="#398495" stop-opacity="0"/>
</linearGradient>
</defs>
</svg>
