<svg width="345" height="505" viewBox="0 0 345 505" fill="none" xmlns="http://www.w3.org/2000/svg">
<path d="M171.337 0.144327C170.036 -0.318013 168.607 0.361857 168.144 1.66286C167.682 2.96386 168.362 4.39333 169.663 4.85567L171.337 0.144327ZM177 182L178.192 179.802L177 182ZM31.7973 504.992C33.1735 505.104 34.3797 504.079 34.4915 502.703L36.3132 480.276C36.425 478.9 35.4 477.694 34.0238 477.582C32.6477 477.47 31.4414 478.495 31.3296 479.872L29.7103 499.806L9.77597 498.187C8.39979 498.075 7.19356 499.1 7.08177 500.476C6.96997 501.852 7.99496 503.058 9.37114 503.17L31.7973 504.992ZM22.7866 481.652C22.2512 480.38 20.7855 479.782 19.5128 480.317C18.2401 480.853 17.6424 482.319 18.1778 483.591L22.7866 481.652ZM5.69991 438.346C5.93924 439.705 7.2356 440.614 8.59541 440.374C9.95522 440.135 10.8636 438.839 10.6242 437.479L5.69991 438.346ZM5.55144 391.697C5.47818 390.318 4.30108 389.26 2.92232 389.333C1.54355 389.406 0.485224 390.584 0.558481 391.962L5.55144 391.697ZM0.480413 345.324C0.412405 346.703 1.4752 347.876 2.85424 347.944C4.23328 348.012 5.40634 346.949 5.47434 345.57L0.480413 345.324ZM10.2157 299.722C10.4359 298.359 9.50949 297.076 8.14645 296.856C6.78341 296.636 5.49994 297.562 5.27974 298.925L10.2157 299.722ZM15.879 253.407C15.4628 254.723 16.1927 256.128 17.5092 256.544C18.8257 256.96 20.2303 256.23 20.6464 254.914L15.879 253.407ZM38.9188 213.019C39.626 211.833 39.238 210.298 38.0522 209.591C36.8664 208.884 35.3317 209.272 34.6245 210.457L38.9188 213.019ZM65.9327 175.329C64.8023 176.122 64.5286 177.681 65.3214 178.811C66.1142 179.942 67.6733 180.215 68.8037 179.423L65.9327 175.329ZM110.82 165.626C112.2 165.59 113.29 164.442 113.254 163.062C113.218 161.681 112.07 160.591 110.69 160.627L110.82 165.626ZM156.794 169.75C155.509 169.244 154.057 169.876 153.552 171.161C153.046 172.445 153.678 173.897 154.962 174.403L156.794 169.75ZM196.969 195.42C198.195 196.054 199.704 195.575 200.338 194.349C200.973 193.122 200.493 191.614 199.267 190.979L196.969 195.42ZM241.14 211.317C239.88 210.753 238.401 211.317 237.837 212.577C237.272 213.837 237.836 215.316 239.096 215.88L241.14 211.317ZM283.015 232.924C284.334 233.332 285.734 232.594 286.143 231.275C286.551 229.956 285.812 228.555 284.493 228.147L283.015 232.924ZM328.587 233.015C327.274 233.443 326.557 234.854 326.985 236.167C327.413 237.479 328.824 238.197 330.137 237.769L328.587 233.015ZM339.314 193.936C338.825 192.644 337.382 191.994 336.09 192.483C334.799 192.972 334.149 194.415 334.638 195.706L339.314 193.936ZM312.944 154.898C313.692 156.058 315.24 156.392 316.4 155.644C317.56 154.896 317.895 153.349 317.146 152.188L312.944 154.898ZM289.729 113.897C288.88 112.808 287.309 112.614 286.22 113.463C285.131 114.312 284.937 115.883 285.786 116.972L289.729 113.897ZM255.888 81.1336C256.805 82.1656 258.385 82.2585 259.417 81.3412C260.449 80.4239 260.542 78.8437 259.625 77.8118L255.888 81.1336ZM227.251 43.6842C226.266 42.7166 224.683 42.7308 223.715 43.7159C222.748 44.7009 222.762 46.2838 223.747 47.2513L227.251 43.6842ZM188.852 16.4492C189.955 17.2801 191.522 17.0597 192.353 15.957C193.184 14.8543 192.963 13.2868 191.861 12.4559L188.852 16.4492ZM33.9048 500.881C29.8998 496.168 26.1605 489.673 22.7866 481.652L18.1778 483.591C21.6716 491.896 25.6491 498.887 30.0946 504.119L33.9048 500.881ZM10.6242 437.479C8.13884 423.358 6.41137 407.882 5.55144 391.697L0.558481 391.962C1.428 408.328 3.17603 424.006 5.69991 438.346L10.6242 437.479ZM5.47434 345.57C6.23233 330.2 7.78709 314.756 10.2157 299.722L5.27974 298.925C2.81915 314.156 1.24672 329.785 0.480413 345.324L5.47434 345.57ZM20.6464 254.914C25.5094 239.53 31.5688 225.342 38.9188 213.019L34.6245 210.457C27.0355 223.182 20.8315 237.74 15.879 253.407L20.6464 254.914ZM68.8037 179.423C80.8213 170.994 94.7491 166.042 110.82 165.626L110.69 160.627C93.6049 161.07 78.7288 166.354 65.9327 175.329L68.8037 179.423ZM154.962 174.403C161.637 177.03 168.583 180.28 175.808 184.198L178.192 179.802C170.806 175.797 163.675 172.459 156.794 169.75L154.962 174.403ZM175.808 184.198C183.146 188.177 190.197 191.915 196.969 195.42L199.267 190.979C192.526 187.49 185.503 183.767 178.192 179.802L175.808 184.198ZM239.096 215.88C256.068 223.485 270.631 229.092 283.015 232.924L284.493 228.147C272.354 224.391 257.986 218.866 241.14 211.317L239.096 215.88ZM330.137 237.769C334.165 236.455 337.378 234.369 339.73 231.534C342.078 228.702 343.456 225.261 344.037 221.41C345.186 213.798 343.262 204.359 339.314 193.936L334.638 195.706C338.482 205.856 340.05 214.323 339.093 220.663C338.621 223.788 337.546 226.334 335.881 228.341C334.22 230.344 331.857 231.948 328.587 233.015L330.137 237.769ZM317.146 152.188C309.132 139.759 299.785 126.79 289.729 113.897L285.786 116.972C295.77 129.773 305.027 142.619 312.944 154.898L317.146 152.188ZM259.625 77.8118C248.761 65.591 237.764 54.0104 227.251 43.6842L223.747 47.2513C234.174 57.4923 245.093 68.9903 255.888 81.1336L259.625 77.8118ZM191.861 12.4559C183.897 6.45547 176.853 2.10459 171.337 0.144327L169.663 4.85567C174.434 6.5511 180.98 10.5178 188.852 16.4492L191.861 12.4559Z" fill="#D5F1E8"/>
</svg>
