<svg width="214" height="257" viewBox="0 0 214 257" fill="none" xmlns="http://www.w3.org/2000/svg">
<path d="M2.51819 4.79945C1.24825 4.2576 0.65799 2.78885 1.19983 1.5189C1.74168 0.248956 3.21043 -0.34129 4.48038 0.200554L2.51819 4.79945ZM60.9995 165.5L60.3994 163.073L60.9995 165.5ZM189.202 256.992C187.826 257.104 186.62 256.079 186.508 254.702L184.686 232.276C184.574 230.9 185.599 229.694 186.975 229.582C188.352 229.47 189.558 230.495 189.67 231.871L191.289 251.806L211.223 250.186C212.599 250.075 213.806 251.1 213.917 252.476C214.029 253.852 213.004 255.058 211.628 255.17L189.202 256.992ZM199.781 231.377C200.202 230.062 201.609 229.337 202.924 229.759C204.239 230.18 204.963 231.587 204.542 232.902L199.781 231.377ZM187.422 184.277C188.496 185.146 188.662 186.72 187.794 187.793C186.925 188.867 185.351 189.033 184.278 188.165L187.422 184.277ZM138.036 167.62C136.689 167.316 135.843 165.978 136.147 164.631C136.451 163.284 137.789 162.438 139.136 162.742L138.036 167.62ZM86.5411 158.943C87.9179 158.838 89.1188 159.87 89.2234 161.246C89.3281 162.623 88.2968 163.824 86.9201 163.929L86.5411 158.943ZM31.9614 172.919C30.5822 172.983 29.4125 171.917 29.3489 170.537C29.2852 169.158 30.3517 167.988 31.731 167.925L31.9614 172.919ZM18.9666 130.244C18.4404 131.521 16.979 132.129 15.7025 131.603C14.426 131.076 13.8178 129.615 14.344 128.339L18.9666 130.244ZM35.2781 73.646C35.6094 72.3057 36.9646 71.4877 38.305 71.8191C39.6454 72.1504 40.4633 73.5056 40.132 74.846L35.2781 73.646ZM29.7323 17.0256C30.6725 18.0367 30.615 19.6186 29.6039 20.5588C28.5928 21.4991 27.0109 21.4416 26.0707 20.4305L29.7323 17.0256ZM187.094 252.881C193.54 245.296 197.627 238.101 199.781 231.377L204.542 232.902C202.145 240.387 197.676 248.15 190.905 256.119L187.094 252.881ZM184.278 188.165C172.802 178.883 156.501 171.784 138.036 167.62L139.136 162.742C158.1 167.019 175.179 174.375 187.422 184.277L184.278 188.165ZM86.9201 163.929C78.3128 164.583 69.7972 165.9 61.5996 167.927L60.3994 163.073C68.8878 160.974 77.6795 159.617 86.5411 158.943L86.9201 163.929ZM61.5996 167.927C49.3727 170.95 39.6244 172.566 31.9614 172.919L31.731 167.925C38.9362 167.592 48.3315 166.057 60.3994 163.073L61.5996 167.927ZM14.344 128.339C21.1843 111.745 30.5941 92.5932 35.2781 73.646L40.132 74.846C35.3289 94.2749 25.6245 114.093 18.9666 130.244L14.344 128.339ZM26.0707 20.4305C20.6252 14.5745 12.9869 9.26608 2.51819 4.79945L4.48038 0.200554C15.4528 4.88213 23.7163 10.5562 29.7323 17.0256L26.0707 20.4305Z" fill="#E8FEF2"/>
</svg>
