<svg width="326" height="1812" viewBox="0 0 326 1812" fill="none" xmlns="http://www.w3.org/2000/svg">
<path d="M285.945 5.26677C284.693 4.68401 284.151 3.19689 284.734 1.94519C285.316 0.693484 286.803 0.151201 288.055 0.733961L285.945 5.26677ZM141 697.501L138.979 698.973L141 697.501ZM109.267 1811.99C107.895 1812.13 106.662 1811.14 106.514 1809.77L104.105 1787.4C103.957 1786.02 104.95 1784.79 106.323 1784.64C107.696 1784.5 108.928 1785.49 109.076 1786.86L111.218 1806.75L131.103 1804.61C132.475 1804.46 133.708 1805.45 133.856 1806.82C134.004 1808.2 133.011 1809.43 131.638 1809.58L109.267 1811.99ZM308.829 16.1262C309.527 17.3174 309.127 18.849 307.936 19.5471C306.745 20.2452 305.213 19.8454 304.515 18.6542L308.829 16.1262ZM277.576 49.905C278.764 49.2017 280.298 49.5948 281.001 50.7829C281.704 51.9711 281.311 53.5044 280.123 54.2077L277.576 49.905ZM236.87 77.6638C235.648 78.3073 234.136 77.8386 233.493 76.617C232.85 75.3954 233.318 73.8834 234.54 73.24L236.87 77.6638ZM191.422 96.6759C192.621 95.9919 194.148 96.4098 194.832 97.6092C195.516 98.8086 195.098 100.335 193.899 101.019L191.422 96.6759ZM152.305 126.534C151.156 127.299 149.604 126.988 148.839 125.838C148.074 124.689 148.385 123.137 149.535 122.372L152.305 126.534ZM109.926 151.522C110.994 150.647 112.569 150.803 113.444 151.871C114.319 152.939 114.163 154.514 113.096 155.389L109.926 151.522ZM77.5326 188.498C76.5889 189.506 75.0069 189.558 73.9989 188.614C72.991 187.671 72.9389 186.089 73.8826 185.081L77.5326 188.498ZM43.1682 223.643C43.9333 222.494 45.4853 222.183 46.6346 222.948C47.7839 223.713 48.0953 225.265 47.3301 226.414L43.1682 223.643ZM24.4233 269.035C23.8911 270.309 22.4268 270.911 21.1528 270.379C19.8788 269.846 19.2774 268.382 19.8096 267.108L24.4233 269.035ZM5.42047 314.387C5.68921 313.033 7.00494 312.153 8.35925 312.421C9.71356 312.69 10.5936 314.006 10.3249 315.36L5.42047 314.387ZM5.42038 363.332C5.4039 364.713 4.27133 365.819 2.89075 365.802C1.51013 365.786 0.404266 364.653 0.420746 363.272L5.42038 363.332ZM3.81586 412.517C3.61719 411.15 4.56375 409.882 5.93008 409.683C7.29642 409.484 8.56512 410.431 8.76382 411.797L3.81586 412.517ZM18.9356 459.54C19.3047 460.87 18.5252 462.248 17.1947 462.617C15.8643 462.986 14.4865 462.207 14.1175 460.876L18.9356 459.54ZM29.6248 507.346C29.1258 506.059 29.7648 504.611 31.0522 504.112C32.3395 503.613 33.7877 504.252 34.2868 505.539L29.6248 507.346ZM53.7564 550.209C54.3561 551.453 53.834 552.947 52.5903 553.547C51.3466 554.147 49.8523 553.625 49.2526 552.381L53.7564 550.209ZM72.135 596.054C71.4565 594.851 71.8812 593.327 73.0837 592.648C74.2862 591.969 75.811 592.394 76.4896 593.597L72.135 596.054ZM101.497 635.241C102.237 636.407 101.893 637.952 100.728 638.692C99.5623 639.433 98.0173 639.089 97.2767 637.923L101.497 635.241ZM124.293 678.396C123.502 677.264 123.779 675.705 124.91 674.915C126.042 674.124 127.601 674.401 128.392 675.532L124.293 678.396ZM157.777 716.755C158.566 717.889 158.286 719.447 157.152 720.235C156.019 721.023 154.461 720.744 153.672 719.61L157.777 716.755ZM181.188 761.142C180.452 759.973 180.802 758.43 181.971 757.694C183.139 756.958 184.682 757.308 185.418 758.477L181.188 761.142ZM211.056 801.414C211.735 802.616 211.311 804.141 210.108 804.82C208.906 805.499 207.381 805.074 206.702 803.872L211.056 801.414ZM230.189 848.057C229.573 846.822 230.075 845.321 231.31 844.704C232.546 844.088 234.047 844.59 234.663 845.826L230.189 848.057ZM255.895 891.394C256.444 892.661 255.862 894.133 254.595 894.682C253.328 895.231 251.856 894.649 251.307 893.382L255.895 891.394ZM269.878 939.749C269.401 938.453 270.065 937.016 271.361 936.54C272.657 936.063 274.094 936.727 274.571 938.022L269.878 939.749ZM290.539 985.626C290.94 986.948 290.193 988.343 288.872 988.744C287.55 989.144 286.155 988.398 285.754 987.077L290.539 985.626ZM298.797 1035.25C298.476 1033.9 299.305 1032.55 300.648 1032.23C301.991 1031.91 303.339 1032.74 303.66 1034.09L298.797 1035.25ZM313.816 1083.25C314.054 1084.61 313.144 1085.9 311.784 1086.14C310.423 1086.38 309.128 1085.47 308.891 1084.11L313.816 1083.25ZM315.952 1133.5C315.799 1132.12 316.788 1130.89 318.16 1130.73C319.532 1130.58 320.769 1131.57 320.921 1132.94L315.952 1133.5ZM324.93 1182.97C324.997 1184.35 323.934 1185.52 322.555 1185.59C321.176 1185.66 320.003 1184.59 319.936 1183.21L324.93 1182.97ZM320.834 1233.07C320.852 1231.69 321.985 1230.59 323.366 1230.6C324.747 1230.62 325.852 1231.75 325.834 1233.14L320.834 1233.07ZM323.665 1283.29C323.564 1284.67 322.366 1285.7 320.989 1285.6C319.612 1285.5 318.577 1284.3 318.679 1282.92L323.665 1283.29ZM313.522 1332.64C313.705 1331.27 314.963 1330.31 316.331 1330.49C317.7 1330.68 318.661 1331.94 318.478 1333.3L313.522 1332.64ZM310.373 1382.9C310.111 1384.25 308.8 1385.14 307.444 1384.88C306.089 1384.61 305.202 1383.3 305.464 1381.95L310.373 1382.9ZM294.63 1430.67C294.967 1429.33 296.325 1428.52 297.664 1428.86C299.003 1429.2 299.816 1430.55 299.479 1431.89L294.63 1430.67ZM285.946 1480.13C285.537 1481.45 284.137 1482.18 282.818 1481.78C281.499 1481.37 280.761 1479.97 281.169 1478.65L285.946 1480.13ZM265.115 1526.08C265.591 1524.78 267.028 1524.12 268.324 1524.59C269.62 1525.07 270.284 1526.51 269.808 1527.8L265.115 1526.08ZM251.317 1574.45C250.776 1575.72 249.308 1576.31 248.038 1575.77C246.767 1575.23 246.175 1573.76 246.716 1572.49L251.317 1574.45ZM226.038 1617.98C226.639 1616.74 228.134 1616.22 229.377 1616.82C230.62 1617.42 231.14 1618.92 230.538 1620.16L226.038 1617.98ZM207.626 1664.75C206.967 1665.97 205.448 1666.42 204.236 1665.76C203.023 1665.1 202.575 1663.58 203.234 1662.36L207.626 1664.75ZM178.268 1705.77C178.985 1704.59 180.523 1704.21 181.703 1704.93C182.883 1705.65 183.259 1707.19 182.542 1708.37L178.268 1705.77ZM155.478 1750.61C154.705 1751.75 153.151 1752.05 152.007 1751.28C150.863 1750.51 150.562 1748.95 151.335 1747.81L155.478 1750.61ZM122.217 1788.54C123.051 1787.44 124.619 1787.22 125.72 1788.06C126.82 1788.89 127.036 1790.46 126.202 1791.56L122.217 1788.54ZM288.055 0.733961C298.693 5.68689 305.64 10.6848 308.829 16.1262L304.515 18.6542C302.146 14.6114 296.431 10.1487 285.945 5.26677L288.055 0.733961ZM280.123 54.2077C268.211 61.2587 253.36 68.978 236.87 77.6638L234.54 73.24C251.093 64.5208 265.8 56.8756 277.576 49.905L280.123 54.2077ZM193.899 101.019C180.284 108.783 166.264 117.242 152.305 126.534L149.535 122.372C163.612 113 177.735 104.481 191.422 96.6759L193.899 101.019ZM113.096 155.389C100.678 165.568 88.7011 176.569 77.5326 188.498L73.8826 185.081C85.2211 172.97 97.3629 161.821 109.926 151.522L113.096 155.389ZM47.3301 226.414C38.5212 239.645 30.7789 253.82 24.4233 269.035L19.8096 267.108C26.2969 251.578 34.1945 237.122 43.1682 223.643L47.3301 226.414ZM10.3249 315.36C7.3299 330.454 5.62213 346.423 5.42038 363.332L0.420746 363.272C0.626068 346.062 2.36469 329.787 5.42047 314.387L10.3249 315.36ZM8.76382 411.797C10.9791 427.03 14.3295 442.933 18.9356 459.54L14.1175 460.876C9.45856 444.079 6.06314 427.97 3.81586 412.517L8.76382 411.797ZM34.2868 505.539C39.872 519.946 46.3409 534.83 53.7564 550.209L49.2526 552.381C41.7832 536.89 35.2608 521.884 29.6248 507.346L34.2868 505.539ZM76.4896 593.597C84.1223 607.123 92.4461 621.001 101.497 635.241L97.2767 637.923C88.1819 623.614 79.813 609.661 72.135 596.054L76.4896 593.597ZM128.392 675.532C133.111 682.288 137.986 689.12 143.02 696.028L138.979 698.973C133.926 692.038 129.032 685.179 124.293 678.396L128.392 675.532ZM143.02 696.028C148.061 702.947 152.979 709.856 157.777 716.755L153.672 719.61C148.896 712.741 143.998 705.862 138.979 698.973L143.02 696.028ZM185.418 758.477C194.467 772.84 203.006 787.155 211.056 801.414L206.702 803.872C198.692 789.684 190.194 775.438 181.188 761.142L185.418 758.477ZM234.663 845.826C242.278 861.091 249.347 876.283 255.895 891.394L251.307 893.382C244.795 878.354 237.764 863.243 230.189 848.057L234.663 845.826ZM274.571 938.022C280.45 953.997 285.763 969.869 290.539 985.626L285.754 987.077C281.006 971.412 275.724 955.633 269.878 939.749L274.571 938.022ZM303.66 1034.09C307.606 1050.62 310.979 1067.01 313.816 1083.25L308.891 1084.11C306.071 1067.97 302.719 1051.68 298.797 1035.25L303.66 1034.09ZM320.921 1132.94C322.802 1149.81 324.123 1166.49 324.93 1182.97L319.936 1183.21C319.134 1166.84 317.821 1150.26 315.952 1133.5L320.921 1132.94ZM325.834 1233.14C325.618 1250.1 324.877 1266.83 323.665 1283.29L318.679 1282.92C319.883 1266.56 320.62 1249.94 320.834 1233.07L325.834 1233.14ZM318.478 1333.3C316.223 1350.16 313.501 1366.7 310.373 1382.9L305.464 1381.95C308.574 1365.84 311.281 1349.4 313.522 1332.64L318.478 1333.3ZM299.479 1431.89C295.328 1448.39 290.792 1464.47 285.946 1480.13L281.169 1478.65C285.99 1463.08 290.502 1447.08 294.63 1430.67L299.479 1431.89ZM269.808 1527.8C263.887 1543.91 257.689 1559.47 251.317 1574.45L246.716 1572.49C253.057 1557.59 259.223 1542.11 265.115 1526.08L269.808 1527.8ZM230.538 1620.16C222.943 1635.85 215.255 1650.73 207.626 1664.75L203.234 1662.36C210.827 1648.41 218.478 1633.6 226.038 1617.98L230.538 1620.16ZM182.542 1708.37C173.031 1724.03 163.899 1738.15 155.478 1750.61L151.335 1747.81C159.715 1735.41 168.802 1721.36 178.268 1705.77L182.542 1708.37ZM126.202 1791.56C119.46 1800.46 114.211 1807.02 110.947 1811.07L107.053 1807.93C110.302 1803.9 115.516 1797.38 122.217 1788.54L126.202 1791.56Z" fill="#DAF4EA"/>
</svg>
