<svg width="366" height="609" viewBox="0 0 366 609" fill="none" xmlns="http://www.w3.org/2000/svg">
<path d="M127.83 0.090961C129.161 -0.278578 130.539 0.500306 130.908 1.83065C131.278 3.16099 130.499 4.53901 129.169 4.90855L127.83 0.090961ZM182.999 282L182.68 279.52L182.999 282ZM335.706 608.689C334.497 609.356 332.977 608.916 332.31 607.707L321.447 588.003C320.781 586.793 321.221 585.273 322.43 584.606C323.639 583.94 325.16 584.379 325.826 585.589L335.482 603.103L352.997 593.448C354.206 592.781 355.726 593.221 356.393 594.43C357.06 595.639 356.62 597.16 355.411 597.827L335.706 608.689ZM338.213 584.128C338.574 582.795 339.947 582.007 341.279 582.368C342.612 582.729 343.4 584.102 343.039 585.435L338.213 584.128ZM353.673 541.297C353.391 542.649 352.066 543.516 350.715 543.233C349.363 542.951 348.497 541.626 348.779 540.275L353.673 541.297ZM356.415 495.845C356.595 494.476 357.851 493.513 359.22 493.693C360.589 493.874 361.552 495.13 361.372 496.499L356.415 495.845ZM365.167 451.161C365.125 452.541 363.972 453.626 362.592 453.584C361.212 453.542 360.127 452.39 360.169 451.009L365.167 451.161ZM358.465 406.18C358.305 404.809 359.286 403.567 360.658 403.407C362.029 403.246 363.271 404.228 363.431 405.599L358.465 406.18ZM353.364 360.983C353.831 362.282 353.156 363.714 351.856 364.181C350.557 364.647 349.125 363.972 348.659 362.673L353.364 360.983ZM327.154 324.133C326.271 323.071 326.415 321.495 327.476 320.612C328.538 319.729 330.114 319.873 330.997 320.934L327.154 324.133ZM294.941 292.412C296.175 293.032 296.672 294.535 296.052 295.768C295.432 297.002 293.93 297.5 292.696 296.88L294.941 292.412ZM250.449 284.036C249.083 283.834 248.14 282.563 248.342 281.197C248.544 279.831 249.815 278.888 251.181 279.09L250.449 284.036ZM205.404 277.385C206.783 277.307 207.963 278.361 208.041 279.74C208.12 281.118 207.065 282.299 205.687 282.377L205.404 277.385ZM159.71 286.793C158.332 286.882 157.143 285.838 157.053 284.461C156.963 283.083 158.007 281.893 159.385 281.803L159.71 286.793ZM112.682 281.071C114.055 281.222 115.045 282.457 114.893 283.83C114.742 285.202 113.507 286.192 112.135 286.041L112.682 281.071ZM65.9653 274.805C64.6885 274.279 64.0796 272.818 64.6052 271.541C65.1307 270.265 66.5918 269.656 67.8686 270.181L65.9653 274.805ZM30.0388 244.551C30.9758 245.566 30.9132 247.147 29.8991 248.084C28.8849 249.021 27.3033 248.959 26.3663 247.944L30.0388 244.551ZM3.43716 206.018C3.07507 204.686 3.86166 203.312 5.19406 202.95C6.52646 202.588 7.90009 203.375 8.26218 204.707L3.43716 206.018ZM5.03723 158.905C4.89526 160.278 3.66684 161.276 2.29346 161.134C0.920044 160.993 -0.0782471 159.764 0.0637207 158.391L5.03723 158.905ZM11.5598 112.181C12.0643 110.895 13.5152 110.262 14.8004 110.767C16.0857 111.271 16.7187 112.722 16.2142 114.007L11.5598 112.181ZM38.1374 73.0982C37.3489 74.2317 35.7909 74.5113 34.6574 73.7229C33.524 72.9344 33.2443 71.3764 34.0327 70.243L38.1374 73.0982ZM65.6327 34.6681C66.6693 33.7561 68.249 33.8572 69.161 34.8938C70.073 35.9305 69.972 37.5102 68.9353 38.4221L65.6327 34.6681ZM107.503 12.9389C106.252 13.5225 104.764 12.9812 104.181 11.7299C103.597 10.4786 104.138 8.9911 105.39 8.40748L107.503 12.9389ZM332.098 605.805C333.676 600.348 335.814 592.99 338.213 584.128L343.039 585.435C340.627 594.344 338.478 601.741 336.901 607.194L332.098 605.805ZM348.779 540.275C351.666 526.455 354.357 511.445 356.415 495.845L361.372 496.499C359.295 512.244 356.581 527.38 353.673 541.297L348.779 540.275ZM360.169 451.009C360.626 435.908 360.175 420.803 358.465 406.18L363.431 405.599C365.175 420.51 365.63 435.864 365.167 451.161L360.169 451.009ZM348.659 362.673C343.542 348.428 336.519 335.384 327.154 324.133L330.997 320.934C340.795 332.705 348.085 346.284 353.364 360.983L348.659 362.673ZM292.696 296.88C280.703 290.853 266.718 286.442 250.449 284.036L251.181 279.09C267.918 281.565 282.423 286.121 294.941 292.412L292.696 296.88ZM205.687 282.377C198.548 282.782 191.096 283.477 183.319 284.479L182.68 279.52C190.568 278.503 198.139 277.797 205.404 277.385L205.687 282.377ZM183.319 284.479C175.144 285.533 167.277 286.299 159.71 286.793L159.385 281.803C166.841 281.317 174.603 280.561 182.68 279.52L183.319 284.479ZM112.135 286.041C94.5309 284.103 79.1899 280.249 65.9653 274.805L67.8686 270.181C80.6024 275.423 95.4784 279.177 112.682 281.071L112.135 286.041ZM26.3663 247.944C15.1347 235.788 7.64243 221.493 3.43716 206.018L8.26218 204.707C12.274 219.47 19.3972 233.033 30.0388 244.551L26.3663 247.944ZM0.0637207 158.391C1.65518 142.993 5.60275 127.358 11.5598 112.181L16.2142 114.007C10.4068 128.804 6.57797 143.997 5.03723 158.905L0.0637207 158.391ZM34.0327 70.243C43.1112 57.1921 53.7383 45.1324 65.6327 34.6681L68.9353 38.4221C57.3596 48.6061 46.9983 60.3601 38.1374 73.0982L34.0327 70.243ZM105.39 8.40748C112.625 5.03307 120.118 2.23341 127.83 0.090961L129.169 4.90855C121.734 6.97379 114.5 9.67565 107.503 12.9389L105.39 8.40748Z" fill="#E8FEF2"/>
</svg>
