<svg width="738" height="871" viewBox="0 0 738 871" fill="none" xmlns="http://www.w3.org/2000/svg">
<path d="M1.95532 4.92503C0.616028 4.58943 -0.197632 3.23165 0.138 1.89234C0.473572 0.553039 1.83136 -0.260626 3.17065 0.0749731L1.95532 4.92503ZM237.932 672.5L235.482 672.004L237.932 672.5ZM736.319 747.732C737.295 748.709 737.295 750.291 736.319 751.268L720.409 767.178C719.433 768.154 717.85 768.154 716.873 767.178C715.897 766.201 715.897 764.618 716.873 763.642L731.016 749.5L716.873 735.358C715.897 734.382 715.897 732.799 716.873 731.822C717.85 730.846 719.433 730.846 720.409 731.822L736.319 747.732ZM712.128 756.943C710.814 757.366 709.406 756.644 708.982 755.329C708.559 754.015 709.282 752.607 710.596 752.183L712.128 756.943ZM665.266 769.327C666.545 768.806 668.004 769.42 668.525 770.699C669.046 771.977 668.431 773.436 667.153 773.957L665.266 769.327ZM622.526 792.412C621.251 792.94 619.788 792.334 619.26 791.059C618.732 789.783 619.338 788.321 620.613 787.793L622.526 792.412ZM575.955 805.973C577.238 805.463 578.692 806.09 579.202 807.373C579.711 808.656 579.084 810.11 577.801 810.619L575.955 805.973ZM532.692 827.872C531.396 828.345 529.96 827.678 529.486 826.381C529.013 825.084 529.68 823.649 530.977 823.175L532.692 827.872ZM485.447 838.786C486.763 838.367 488.168 839.095 488.586 840.411C489.005 841.727 488.277 843.133 486.961 843.551L485.447 838.786ZM440.422 856.842C439.083 857.176 437.726 856.361 437.391 855.022C437.057 853.682 437.872 852.325 439.212 851.991L440.422 856.842ZM392.19 861.505C393.556 861.303 394.827 862.246 395.029 863.612C395.232 864.978 394.289 866.249 392.923 866.451L392.19 861.505ZM344.537 869.991C343.157 869.968 342.056 868.83 342.079 867.45C342.102 866.069 343.239 864.969 344.62 864.992L344.537 869.991ZM297.85 857.789C299.16 858.227 299.866 859.644 299.428 860.953C298.99 862.263 297.573 862.969 296.264 862.531L297.85 857.789ZM255.1 836.265C254.178 835.237 254.263 833.656 255.291 832.734C256.318 831.812 257.899 831.897 258.821 832.925L255.1 836.265ZM237.51 791.601C237.863 792.936 237.067 794.304 235.732 794.657C234.397 795.01 233.029 794.214 232.676 792.879L237.51 791.601ZM227.168 744.569C227.173 743.189 228.297 742.074 229.678 742.079C231.058 742.085 232.173 743.208 232.168 744.589L227.168 744.569ZM236.116 697.073C235.911 698.438 234.638 699.379 233.272 699.174C231.907 698.969 230.966 697.696 231.171 696.33L236.116 697.073ZM239.952 648.439C240.193 647.079 241.49 646.172 242.85 646.413C244.209 646.653 245.116 647.95 244.876 649.31L239.952 648.439ZM252.019 601.93C251.848 603.3 250.599 604.273 249.229 604.102C247.859 603.931 246.886 602.682 247.057 601.312L252.019 601.93ZM251.692 553.706C251.789 552.329 252.983 551.29 254.361 551.387C255.738 551.483 256.776 552.678 256.68 554.055L251.692 553.706ZM258.688 506.165C258.67 507.545 257.535 508.649 256.155 508.631C254.774 508.612 253.67 507.478 253.689 506.097L258.688 506.165ZM252.93 458.302C252.867 456.923 253.934 455.753 255.313 455.69C256.693 455.627 257.862 456.694 257.925 458.074L252.93 458.302ZM254.265 410.255C254.413 411.628 253.42 412.86 252.048 413.009C250.675 413.157 249.442 412.164 249.294 410.792L254.265 410.255ZM242.64 363.504C242.403 362.144 243.314 360.849 244.674 360.612C246.034 360.375 247.329 361.285 247.566 362.646L242.64 363.504ZM237.718 315.603C238.047 316.944 237.227 318.298 235.886 318.627C234.545 318.957 233.191 318.136 232.862 316.796L237.718 315.603ZM219.85 270.928C219.425 269.614 220.146 268.205 221.46 267.78C222.773 267.355 224.183 268.076 224.608 269.389L219.85 270.928ZM208.104 224.265C208.628 225.542 208.017 227.002 206.74 227.527C205.463 228.051 204.002 227.44 203.478 226.163L208.104 224.265ZM183.604 182.836C182.977 181.607 183.465 180.101 184.695 179.473C185.924 178.845 187.43 179.333 188.058 180.563L183.604 182.836ZM164.296 138.727C165.032 139.895 164.683 141.439 163.515 142.176C162.347 142.912 160.803 142.563 160.067 141.395L164.296 138.727ZM132.682 102.466C131.829 101.38 132.018 99.8088 133.104 98.9559C134.189 98.1031 135.761 98.2919 136.614 99.3777L132.682 102.466ZM104.686 63.3391C105.665 64.3126 105.67 65.8955 104.696 66.8746C103.723 67.8537 102.14 67.8583 101.161 66.8848L104.686 63.3391ZM65.166 36.0638C64.0471 35.2547 63.796 33.6919 64.6051 32.573C65.4142 31.4542 66.9771 31.2031 68.0959 32.0122L65.166 36.0638ZM26.1429 7.8773C27.4133 8.41829 28.0045 9.88664 27.4635 11.157C26.9225 12.4273 25.4542 13.0185 24.1839 12.4775L26.1429 7.8773ZM734.551 752C729.685 752 722.131 753.722 712.128 756.943L710.596 752.183C720.609 748.96 728.825 747 734.551 747V752ZM667.153 773.957C653.53 779.508 638.538 785.782 622.526 792.412L620.613 787.793C636.6 781.173 651.627 774.885 665.266 769.327L667.153 773.957ZM577.801 810.619C563.149 816.441 548.036 822.267 532.692 827.872L530.977 823.175C546.267 817.59 561.335 811.781 575.955 805.973L577.801 810.619ZM486.961 843.551C471.383 848.5 455.793 853.007 440.422 856.842L439.212 851.991C454.463 848.185 469.95 843.709 485.447 838.786L486.961 843.551ZM392.923 866.451C376.099 868.945 359.852 870.244 344.537 869.991L344.62 864.992C359.602 865.239 375.57 863.969 392.19 861.505L392.923 866.451ZM296.264 862.531C280.189 857.153 266.207 848.639 255.1 836.265L258.821 832.925C269.268 844.564 282.472 852.644 297.85 857.789L296.264 862.531ZM232.676 792.879C229.002 778.983 227.096 762.952 227.168 744.569L232.168 744.589C232.097 762.622 233.969 778.206 237.51 791.601L232.676 792.879ZM231.171 696.33C232.341 688.538 233.775 680.433 235.482 672.004L240.382 672.996C238.691 681.348 237.272 689.37 236.116 697.073L231.171 696.33ZM235.482 672.004C237.084 664.096 238.573 656.24 239.952 648.439L244.876 649.31C243.489 657.152 241.992 665.048 240.382 672.996L235.482 672.004ZM247.057 601.312C249.064 585.188 250.6 569.317 251.692 553.706L256.68 554.055C255.581 569.756 254.036 585.717 252.019 601.93L247.057 601.312ZM253.689 506.097C253.908 489.846 253.644 473.91 252.93 458.302L257.925 458.074C258.644 473.781 258.909 489.815 258.688 506.165L253.689 506.097ZM249.294 410.792C247.548 394.626 245.316 378.858 242.64 363.504L247.566 362.646C250.26 378.107 252.508 393.982 254.265 410.255L249.294 410.792ZM232.862 316.796C228.981 300.989 224.625 285.693 219.85 270.928L224.608 269.389C229.419 284.269 233.808 299.681 237.718 315.603L232.862 316.796ZM203.478 226.163C197.271 211.033 190.62 196.582 183.604 182.836L188.058 180.563C195.137 194.433 201.845 209.009 208.104 224.265L203.478 226.163ZM160.067 141.395C151.268 127.449 142.102 114.459 132.682 102.466L136.614 99.3777C146.143 111.51 155.409 124.641 164.296 138.727L160.067 141.395ZM101.161 66.8848C89.2757 55.068 77.2094 44.7729 65.166 36.0638L68.0959 32.0122C80.3685 40.8871 92.6324 51.3546 104.686 63.3391L101.161 66.8848ZM24.1839 12.4775C16.6428 9.266 9.21552 6.74426 1.95532 4.92503L3.17065 0.0749731C10.7065 1.96329 18.3823 4.57228 26.1429 7.8773L24.1839 12.4775Z" fill="#D9F3EA"/>
</svg>
