<svg width="764" height="366" viewBox="0 0 764 366" fill="none" xmlns="http://www.w3.org/2000/svg">
<path d="M3.87365 0.150696C2.57616 -0.321425 1.14162 0.347665 0.669494 1.64515C0.197374 2.94263 0.866464 4.37718 2.16395 4.8493L3.87365 0.150696ZM352.654 298.5L353.942 300.643L352.654 298.5ZM760.868 337.5C762.249 337.511 763.377 336.4 763.388 335.02L763.566 312.521C763.577 311.14 762.467 310.012 761.086 310.001C759.705 309.99 758.577 311.1 758.566 312.481L758.408 332.48L738.408 332.322C737.028 332.311 735.9 333.421 735.889 334.802C735.878 336.182 736.988 337.311 738.369 337.322L760.868 337.5ZM14.2181 24.4314C14.589 25.7613 15.9679 26.5388 17.2978 26.1678C18.6278 25.7969 19.4052 24.418 19.0343 23.0881L14.2181 24.4314ZM26.9453 75.5239C26.8165 74.1492 25.5976 73.1392 24.2229 73.268C22.8482 73.3968 21.8383 74.6156 21.9671 75.9903L26.9453 75.5239ZM26.4765 128.276C26.6002 129.651 27.8153 130.665 29.1905 130.542C30.5656 130.418 31.5801 129.203 31.4563 127.827L26.4765 128.276ZM37.2006 179.872C37.0115 178.505 35.7494 177.549 34.3817 177.738C33.014 177.928 32.0586 179.19 32.2478 180.557L37.2006 179.872ZM41.7421 232.423C42.0627 233.766 43.4113 234.595 44.7542 234.274C46.0972 233.954 46.926 232.605 46.6055 231.262L41.7421 232.423ZM62.6438 280.74C62.0929 279.474 60.6199 278.894 59.3539 279.445C58.0878 279.996 57.5081 281.469 58.059 282.735L62.6438 280.74ZM86.0786 327.795C87.0024 328.821 88.5832 328.904 89.6092 327.98C90.6353 327.056 90.7182 325.476 89.7943 324.45L86.0786 327.795ZM131.518 353.239C130.225 352.755 128.784 353.412 128.301 354.706C127.818 355.999 128.475 357.439 129.768 357.922L131.518 353.239ZM182.258 365.335C183.637 365.27 184.703 364.1 184.638 362.721C184.574 361.342 183.404 360.276 182.025 360.34L182.258 365.335ZM232.89 351.319C231.564 351.703 230.8 353.089 231.184 354.415C231.568 355.741 232.954 356.505 234.28 356.122L232.89 351.319ZM284.114 337.562C285.374 336.999 285.94 335.52 285.377 334.26C284.814 332.999 283.335 332.433 282.074 332.996L284.114 337.562ZM328.258 309.736C327.051 310.406 326.616 311.929 327.287 313.135C327.958 314.342 329.48 314.777 330.687 314.106L328.258 309.736ZM374.061 288.886C375.262 288.205 375.683 286.68 375.002 285.478C374.321 284.277 372.795 283.856 371.594 284.537L374.061 288.886ZM412.826 262.716C411.585 263.323 411.072 264.82 411.679 266.06C412.285 267.3 413.783 267.814 415.023 267.207L412.826 262.716ZM457.274 248.497C458.559 247.991 459.19 246.54 458.685 245.255C458.179 243.97 456.728 243.338 455.443 243.844L457.274 248.497ZM499.652 229.034C498.32 229.397 497.534 230.771 497.896 232.103C498.259 233.436 499.633 234.222 500.965 233.859L499.652 229.034ZM546.127 224.995C547.499 224.839 548.485 223.6 548.329 222.228C548.173 220.857 546.934 219.871 545.562 220.027L546.127 224.995ZM592.411 219.417C591.037 219.283 589.815 220.288 589.681 221.662C589.547 223.037 590.552 224.259 591.926 224.393L592.411 219.417ZM636.395 234.556C637.689 235.039 639.129 234.382 639.612 233.088C640.094 231.794 639.437 230.354 638.143 229.872L636.395 234.556ZM679.627 251.844C678.495 251.054 676.936 251.331 676.146 252.463C675.356 253.596 675.634 255.154 676.766 255.944L679.627 251.844ZM711.758 285.726C712.736 286.701 714.319 286.699 715.294 285.721C716.269 284.744 716.267 283.161 715.289 282.186L711.758 285.726ZM746.954 316.353C746.031 315.326 744.45 315.243 743.424 316.166C742.397 317.09 742.313 318.67 743.237 319.697L746.954 316.353ZM2.16395 4.8493C4.52181 5.70727 6.73599 7.66336 8.7951 10.98C10.8562 14.2998 12.6492 18.8061 14.2181 24.4314L19.0343 23.0881C17.4018 17.2351 15.4539 12.2259 13.043 8.34269C10.6301 4.45626 7.64131 1.52165 3.87365 0.150696L2.16395 4.8493ZM21.9671 75.9903C23.4682 92.0117 24.7972 109.615 26.4765 128.276L31.4563 127.827C29.7924 109.338 28.4406 91.4836 26.9453 75.5239L21.9671 75.9903ZM32.2478 180.557C34.6615 198.01 37.7067 215.517 41.7421 232.423L46.6055 231.262C42.6177 214.556 39.5991 197.215 37.2006 179.872L32.2478 180.557ZM58.059 282.735C65.4325 299.68 74.5893 315.034 86.0786 327.795L89.7943 324.45C78.7508 312.184 69.8598 297.323 62.6438 280.74L58.059 282.735ZM129.768 357.922C144.92 363.583 162.303 366.267 182.258 365.335L182.025 360.34C162.662 361.244 145.962 358.635 131.518 353.239L129.768 357.922ZM234.28 356.122C249.697 351.66 266.276 345.529 284.114 337.562L282.074 332.996C264.416 340.884 248.054 346.93 232.89 351.319L234.28 356.122ZM330.687 314.106C338.244 309.905 345.994 305.42 353.942 300.643L351.366 296.357C343.464 301.107 335.763 305.564 328.258 309.736L330.687 314.106ZM353.942 300.643C360.774 296.536 367.479 292.619 374.061 288.886L371.594 284.537C364.975 288.291 358.233 292.229 351.366 296.357L353.942 300.643ZM415.023 267.207C429.79 259.983 443.859 253.775 457.274 248.497L455.443 243.844C441.894 249.175 427.703 255.437 412.826 262.716L415.023 267.207ZM500.965 233.859C517.082 229.472 532.1 226.589 546.127 224.995L545.562 220.027C531.261 221.652 515.992 224.586 499.652 229.034L500.965 233.859ZM591.926 224.393C608.274 225.988 623.002 229.559 636.395 234.556L638.143 229.872C624.348 224.724 609.196 221.054 592.411 219.417L591.926 224.393ZM676.766 255.944C689.709 264.974 701.211 275.206 711.758 285.726L715.289 282.186C704.607 271.531 692.879 261.09 679.627 251.844L676.766 255.944ZM743.237 319.697C748.643 325.707 753.904 331.468 759.106 336.754L762.669 333.246C757.55 328.045 752.352 322.354 746.954 316.353L743.237 319.697Z" fill="#E8FEF2"/>
</svg>
