<svg width="417" height="268" viewBox="0 0 417 268" fill="none" xmlns="http://www.w3.org/2000/svg">
<path d="M365.852 0.150757C364.555 -0.321364 363.12 0.347726 362.648 1.64521C362.176 2.9427 362.845 4.37724 364.143 4.84937L365.852 0.150757ZM199.946 184L200.635 181.597L199.946 184ZM39.5467 267.489C40.9214 267.617 42.1395 266.606 42.2673 265.231L44.35 242.828C44.4778 241.453 43.467 240.235 42.0922 240.107C40.7174 239.98 39.4993 240.99 39.3715 242.365L37.5202 262.279L17.6061 260.428C16.2313 260.3 15.0132 261.311 14.8854 262.686C14.7576 264.061 15.7685 265.279 17.1433 265.407L39.5467 267.489ZM26.7513 243.703C25.971 242.564 24.4151 242.273 23.276 243.054C22.1369 243.834 21.846 245.39 22.6263 246.529L26.7513 243.703ZM1.44124 200.509C1.6589 201.873 2.94064 202.802 4.30408 202.584C5.66753 202.366 6.59638 201.085 6.37873 199.721L1.44124 200.509ZM29.0809 164.859C30.3979 164.444 31.1297 163.041 30.7152 161.724C30.3008 160.407 28.8971 159.675 27.5801 160.089L29.0809 164.859ZM78.0613 156.529C76.6843 156.427 75.4858 157.461 75.3845 158.838C75.2831 160.215 76.3171 161.414 77.6941 161.515L78.0613 156.529ZM126.627 168.497C127.982 168.763 129.296 167.881 129.562 166.526C129.828 165.171 128.946 163.857 127.591 163.591L126.627 168.497ZM176.441 174.942C175.106 174.591 173.739 175.389 173.388 176.724C173.037 178.06 173.835 179.427 175.17 179.778L176.441 174.942ZM222.977 192.648C224.32 192.968 225.668 192.14 225.989 190.797C226.31 189.454 225.481 188.105 224.138 187.784L222.977 192.648ZM271.655 196.324C270.283 196.17 269.045 197.157 268.891 198.529C268.737 199.901 269.724 201.139 271.096 201.293L271.655 196.324ZM320.33 202.22C321.705 202.09 322.715 200.871 322.585 199.497C322.456 198.122 321.237 197.112 319.862 197.242L320.33 202.22ZM365.578 184.941C364.348 185.568 363.86 187.074 364.487 188.304C365.114 189.534 366.62 190.022 367.85 189.395L365.578 184.941ZM403.833 155.559C404.517 154.36 404.099 152.833 402.9 152.149C401.7 151.465 400.174 151.883 399.49 153.083L403.833 155.559ZM411.392 107.641C411.351 109.021 412.437 110.173 413.817 110.214C415.197 110.255 416.349 109.17 416.39 107.789L411.392 107.641ZM409.246 59.008C408.827 57.6924 407.421 56.9659 406.105 57.3852C404.79 57.8045 404.063 59.2108 404.483 60.5263L409.246 59.008ZM382.267 18.632C383.169 19.6774 384.748 19.7936 385.793 18.8916C386.839 17.9896 386.955 16.411 386.053 15.3656L382.267 18.632ZM41.7019 263.404C36.374 256.984 31.3091 250.357 26.7513 243.703L22.6263 246.529C27.2832 253.327 32.4433 260.077 37.8543 266.597L41.7019 263.404ZM6.37873 199.721C5.07663 191.565 5.94531 184.442 9.38509 178.641C12.8151 172.855 19.0132 168.027 29.0809 164.859L27.5801 160.089C16.6788 163.52 9.30362 168.974 5.08419 176.091C0.87449 183.191 0.0174165 191.59 1.44124 200.509L6.37873 199.721ZM77.6941 161.515C91.5837 162.538 107.802 164.797 126.627 168.497L127.591 163.591C108.619 159.862 92.1959 157.569 78.0613 156.529L77.6941 161.515ZM175.17 179.778C182.881 181.805 190.907 184.011 199.258 186.403L200.635 181.597C192.251 179.195 184.19 176.979 176.441 174.942L175.17 179.778ZM199.258 186.403C207.443 188.748 215.346 190.825 222.977 192.648L224.138 187.784C216.584 185.98 208.752 183.922 200.635 181.597L199.258 186.403ZM271.096 201.293C289.528 203.366 305.878 203.578 320.33 202.22L319.862 197.242C305.805 198.563 289.803 198.365 271.655 196.324L271.096 201.293ZM367.85 189.395C384.358 180.977 396.059 169.195 403.833 155.559L399.49 153.083C392.195 165.878 381.211 176.969 365.578 184.941L367.85 189.395ZM416.39 107.789C416.884 91.1533 414.121 74.3027 409.246 59.008L404.483 60.5263C409.208 75.3515 411.867 91.6376 411.392 107.641L416.39 107.789ZM386.053 15.3656C379.817 8.13819 372.94 2.72988 365.852 0.150757L364.143 4.84937C370.151 7.03568 376.359 11.7846 382.267 18.632L386.053 15.3656Z" fill="#D8F3EA"/>
</svg>
