<svg width="124" height="603" viewBox="0 0 124 603" fill="none" xmlns="http://www.w3.org/2000/svg">
<path d="M74.722 4.92503C76.0614 4.58943 76.875 3.23165 76.5394 1.89234C76.2038 0.553039 74.846 -0.260626 73.5067 0.0749731L74.722 4.92503ZM97.0653 345L99.0726 346.49L97.0653 345ZM39.2125 602.989C40.5873 603.117 41.8053 602.106 41.9331 600.731L44.0159 578.328C44.1437 576.953 43.1328 575.735 41.758 575.607C40.3832 575.48 39.1651 576.49 39.0373 577.865L37.186 597.779L17.2719 595.928C15.8971 595.8 14.679 596.811 14.5512 598.186C14.4234 599.561 15.4343 600.779 16.8091 600.907L39.2125 602.989ZM26.5223 579.874C25.7194 578.75 24.158 578.491 23.0347 579.293C21.9114 580.096 21.6517 581.658 22.4546 582.781L26.5223 579.874ZM1.72343 538.107C1.96406 539.466 3.26128 540.373 4.62087 540.133C5.98045 539.892 6.88754 538.595 6.64692 537.235L1.72343 538.107ZM11.448 490.67C11.8805 489.359 11.1682 487.945 9.85694 487.513C8.54572 487.08 7.13215 487.793 6.69964 489.104L11.448 490.67ZM27.107 444.587C26.433 445.792 26.8634 447.315 28.0685 447.989C29.2735 448.663 30.7967 448.233 31.4708 447.028L27.107 444.587ZM56.913 405.905C57.6789 404.756 57.3684 403.204 56.2196 402.438C55.0708 401.672 53.5186 401.983 52.7527 403.131L56.913 405.905ZM80.6056 363.215C79.7962 364.333 80.0467 365.896 81.1652 366.706C82.2838 367.515 83.8467 367.264 84.6562 366.146L80.6056 363.215ZM111.898 325.394C112.498 324.15 111.975 322.656 110.731 322.056C109.488 321.457 107.993 321.979 107.394 323.223L111.898 325.394ZM118.692 277.69C118.633 279.07 119.703 280.236 121.082 280.296C122.462 280.355 123.628 279.285 123.688 277.906L118.692 277.69ZM117.906 229.375C117.557 228.039 116.191 227.24 114.855 227.589C113.519 227.938 112.719 229.304 113.068 230.639L117.906 229.375ZM96.7602 185.633C97.3243 186.893 98.8033 187.457 100.063 186.893C101.324 186.329 101.888 184.85 101.324 183.59L96.7602 185.633ZM79.6464 140.188C78.9945 138.971 77.4793 138.512 76.2622 139.164C75.0451 139.816 74.5869 141.331 75.2388 142.548L79.6464 140.188ZM52.463 99.8723C53.0878 101.104 54.5924 101.595 55.8237 100.97C57.055 100.346 57.5466 98.841 56.9218 97.6097L52.463 99.8723ZM39.3742 53.3743C39.0899 52.0232 37.7641 51.1584 36.413 51.4427C35.0618 51.727 34.197 53.0528 34.4813 54.4039L39.3742 53.3743ZM50.3349 9.46575C49.175 10.2147 48.8419 11.7622 49.5909 12.9221C50.3399 14.082 51.8873 14.4151 53.0472 13.6662L50.3349 9.46575ZM41.3677 598.903C35.8634 592.271 30.8922 585.987 26.5223 579.874L22.4546 582.781C26.9206 589.029 31.9746 595.414 37.5201 602.097L41.3677 598.903ZM6.64692 537.235C4.23573 523.612 5.49652 508.713 11.448 490.67L6.69964 489.104C0.549349 507.75 -0.862095 523.498 1.72343 538.107L6.64692 537.235ZM31.4708 447.028C38.4035 434.634 46.8382 421.017 56.913 405.905L52.7527 403.131C42.6262 418.321 34.119 432.051 27.107 444.587L31.4708 447.028ZM84.6562 366.146C89.2371 359.816 94.0405 353.268 99.0726 346.49L95.0581 343.51C90.0151 350.302 85.1996 356.867 80.6056 363.215L84.6562 366.146ZM99.0726 346.49C104.22 339.557 108.466 332.517 111.898 325.394L107.394 323.223C104.103 330.052 100.023 336.822 95.0581 343.51L99.0726 346.49ZM123.688 277.906C124.386 261.701 122.103 245.436 117.906 229.375L113.068 230.639C117.171 246.339 119.365 262.096 118.692 277.69L123.688 277.906ZM101.324 183.59C94.6511 168.684 87.1173 154.137 79.6464 140.188L75.2388 142.548C82.6923 156.465 90.1603 170.89 96.7602 185.633L101.324 183.59ZM56.9218 97.6097C48.5719 81.1547 42.0912 66.2864 39.3742 53.3743L34.4813 54.4039C37.3425 68.0008 44.0861 83.364 52.463 99.8723L56.9218 97.6097ZM53.0472 13.6662C58.4616 10.17 65.5743 7.21723 74.722 4.92503L73.5067 0.0749731C63.9935 2.45878 56.3337 5.59219 50.3349 9.46575L53.0472 13.6662Z" fill="#EAFFF3"/>
</svg>
